<svg width="76" height="78" viewBox="0 0 76 78" fill="none" xmlns="http://www.w3.org/2000/svg">
<path d="M38.1662 20.0003C36.1755 20.0003 34.2662 19.1996 32.8586 17.7743C31.4509 16.349 30.66 14.4159 30.66 12.4003C30.66 10.3846 31.4509 8.45156 32.8586 7.02628C34.2662 5.601 36.1755 4.80029 38.1662 4.80029C40.157 4.80029 42.0662 5.601 43.4739 7.02628C44.8816 8.45156 45.6724 10.3846 45.6724 12.4003C45.6724 14.4159 44.8816 16.349 43.4739 17.7743C42.0662 19.1996 40.157 20.0003 38.1662 20.0003ZM38.1662 20.0003L38.1666 35.2001M38.1666 35.2001C41.1528 35.2001 44.0166 36.4012 46.1281 38.5391C48.2396 40.677 49.4259 43.5766 49.4259 46.6001C49.4259 49.6236 48.2396 52.5232 46.1281 54.6611C44.0166 56.799 41.1528 58.0001 38.1666 58.0001C35.1805 58.0001 32.3166 56.799 30.2051 54.6611C28.0936 52.5232 26.9074 49.6236 26.9074 46.6001C26.9074 43.5766 28.0936 40.677 30.2051 38.5391C32.3166 36.4012 35.1805 35.2001 38.1666 35.2001ZM18.2758 61.0393L28.7845 53.4393M58.0576 61.0393L47.5489 53.4393M4.38867 65.6002C4.38867 67.6158 5.1795 69.5489 6.58718 70.9742C7.99486 72.3995 9.90408 73.2002 11.8948 73.2002C13.8856 73.2002 15.7948 72.3995 17.2025 70.9742C18.6102 69.5489 19.401 67.6158 19.401 65.6002C19.401 63.5845 18.6102 61.6515 17.2025 60.2262C15.7948 58.8009 13.8856 58.0002 11.8948 58.0002C9.90408 58.0002 7.99486 58.8009 6.58718 60.2262C5.1795 61.6515 4.38867 63.5845 4.38867 65.6002ZM56.9319 65.6002C56.9319 67.6158 57.7228 69.5489 59.1304 70.9742C60.5381 72.3995 62.4474 73.2002 64.4381 73.2002C66.4289 73.2002 68.3381 72.3995 69.7458 70.9742C71.1535 69.5489 71.9443 67.6158 71.9443 65.6002C71.9443 63.5845 71.1535 61.6515 69.7458 60.2262C68.3381 58.8009 66.4289 58.0002 64.4381 58.0002C62.4474 58.0002 60.5381 58.8009 59.1304 60.2262C57.7228 61.6515 56.9319 63.5845 56.9319 65.6002Z" stroke="url(#paint0_linear_60_792)" stroke-width="8" stroke-linecap="round" stroke-linejoin="round"/>
<defs>
<linearGradient id="paint0_linear_60_792" x1="4.38867" y1="39.0002" x2="71.9443" y2="39.0002" gradientUnits="userSpaceOnUse">
<stop stop-color="#6F6BFF"/>
<stop offset="1" stop-color="#4870FF"/>
</linearGradient>
</defs>
</svg>
